<svg width="428" height="58" viewBox="0 0 428 58" fill="none" xmlns="http://www.w3.org/2000/svg">
<path d="M18.7652 15.649V15.313H19.5628V14.875H19.2347V15.152H18.7652V14.427H18.8428V14H18.495V14.427H18.5727V15.153H18.1032V14.875H17.7797V15.314H18.5773V15.649C17.8597 15.6753 17.1825 15.943 16.691 16.3948C16.1994 16.8466 15.9327 17.4466 15.9479 18.066H21.3865C21.4012 17.4479 21.1353 16.8492 20.6457 16.3977C20.156 15.9462 19.4812 15.6776 18.7652 15.649Z" fill="white"/>
<path d="M15.2287 18.8788H22.0864C22.1147 18.8788 22.1419 18.8691 22.1619 18.8518C22.1819 18.8346 22.1931 18.8112 22.1931 18.7868V18.4358C22.1931 18.4114 22.1819 18.388 22.1619 18.3707C22.1419 18.3534 22.1147 18.3438 22.0864 18.3438H15.2287C15.2004 18.3438 15.1733 18.3534 15.1533 18.3707C15.1333 18.388 15.1221 18.4114 15.1221 18.4358V18.7878C15.1221 18.7998 15.1248 18.8117 15.1302 18.8228C15.1356 18.8339 15.1435 18.844 15.1534 18.8525C15.1633 18.8609 15.1751 18.8676 15.188 18.8721C15.2009 18.8766 15.2148 18.8789 15.2287 18.8788Z" fill="white"/>
<path d="M15.2287 23.3592H22.0864C22.1147 23.3592 22.1419 23.3495 22.1619 23.3323C22.1819 23.315 22.1931 23.2916 22.1931 23.2672V22.9152C22.1929 22.9031 22.19 22.8912 22.1845 22.8801C22.179 22.869 22.1711 22.8589 22.161 22.8505C22.151 22.842 22.1392 22.8353 22.1262 22.8308C22.1132 22.8263 22.0993 22.8241 22.0853 22.8242H15.2287C15.2004 22.8242 15.1733 22.8339 15.1533 22.8512C15.1333 22.8684 15.1221 22.8918 15.1221 22.9162V23.2682C15.1221 23.2803 15.1248 23.2922 15.1302 23.3033C15.1356 23.3144 15.1435 23.3245 15.1534 23.3329C15.1633 23.3414 15.1751 23.3481 15.188 23.3526C15.2009 23.3571 15.2148 23.3594 15.2287 23.3592Z" fill="white"/>
<path d="M16.4687 19.1407C16.4419 19.1401 16.4151 19.1443 16.3902 19.1529C16.3652 19.1615 16.3425 19.1743 16.3235 19.1907C16.3044 19.207 16.2894 19.2265 16.2793 19.248C16.2692 19.2695 16.2642 19.2925 16.2647 19.3157V22.3917C16.2647 22.4373 16.2857 22.481 16.3231 22.5133C16.3605 22.5455 16.4112 22.5637 16.4641 22.5637H17.2907C17.3436 22.5637 17.3943 22.5455 17.4317 22.5133C17.4691 22.481 17.4901 22.4373 17.4901 22.3917V19.3157C17.4901 19.2701 17.4691 19.2263 17.4317 19.194C17.3943 19.1618 17.3436 19.1437 17.2907 19.1437L16.4687 19.1407Z" fill="white"/>
<path d="M18.2424 19.1406C18.2159 19.1406 18.1897 19.1452 18.1653 19.154C18.1409 19.1628 18.1187 19.1758 18.1002 19.1921C18.0816 19.2083 18.067 19.2277 18.0572 19.2489C18.0474 19.2701 18.0425 19.2928 18.043 19.3156V22.3916C18.043 22.4372 18.064 22.481 18.1014 22.5132C18.1388 22.5455 18.1895 22.5636 18.2424 22.5636H19.0691C19.1219 22.5636 19.1727 22.5455 19.2101 22.5132C19.2475 22.481 19.2685 22.4372 19.2685 22.3916V19.3156C19.2685 19.27 19.2475 19.2263 19.2101 19.194C19.1727 19.1617 19.1219 19.1436 19.0691 19.1436L18.2424 19.1406Z" fill="white"/>
<path d="M19.9905 19.1406C19.964 19.1406 19.9378 19.1452 19.9133 19.154C19.8889 19.1628 19.8668 19.1758 19.8482 19.1921C19.8296 19.2083 19.815 19.2277 19.8052 19.2489C19.7954 19.2701 19.7906 19.2928 19.791 19.3156V22.3916C19.791 22.4372 19.8121 22.481 19.8495 22.5132C19.8868 22.5455 19.9376 22.5636 19.9905 22.5636H20.8171C20.87 22.5636 20.9207 22.5455 20.9581 22.5132C20.9955 22.481 21.0165 22.4372 21.0165 22.3916V19.3156C21.0165 19.27 20.9955 19.2263 20.9581 19.194C20.9207 19.1617 20.87 19.1436 20.8171 19.1436L19.9905 19.1406Z" fill="white"/>
<path d="M4.48554 34.622C5.10055 32.1732 6.29792 29.8612 8.00193 27.832C9.39143 26.2318 11.1071 24.8631 13.0649 23.793C9.97058 24.7864 7.24254 26.4788 5.1661 28.693C2.60965 31.4758 1.19194 34.9098 1.13379 38.46H3.77948C3.88372 37.1652 4.11999 35.8809 4.48554 34.622Z" fill="white"/>
<path d="M29.3622 27.833C31.0663 29.8621 32.2637 32.1742 32.8786 34.623C33.2455 35.8825 33.4829 37.1675 33.5881 38.463H36.2338C36.1758 34.9118 34.7581 31.4769 32.2015 28.693C30.1236 26.4779 27.3934 24.7855 24.2969 23.793C26.2558 24.863 27.9723 26.2321 29.3622 27.833Z" fill="white"/>
<path d="M15.495 24.3555C13.9871 24.9934 12.5958 25.8185 11.3653 26.8045C6.22004 30.9355 5.62412 36.6195 5.52441 38.4635H10.1028C9.97769 35.069 10.7716 31.6961 12.4215 28.6125C13.2475 27.0938 14.2792 25.6648 15.495 24.3555Z" fill="white"/>
<path d="M31.7497 38.4635C31.6477 36.6225 31.0541 30.9365 25.91 26.8045C24.6795 25.8185 23.2882 24.9934 21.7803 24.3555C22.9927 25.6653 24.0212 27.0942 24.8445 28.6125C26.4944 31.6961 27.2883 35.069 27.1633 38.4635H31.7497Z" fill="white"/>
<path d="M17.8123 38.4635V24.3555C16.1627 25.8906 14.8134 27.6469 13.8171 29.5555C12.3721 32.3504 11.7073 35.3987 11.8763 38.4555L17.8123 38.4635Z" fill="white"/>
<path d="M19.5391 24.3555V38.4635H25.4751C25.6441 35.4067 24.9793 32.3584 23.5343 29.5635C22.5383 27.6523 21.189 25.8934 19.5391 24.3555Z" fill="white"/>
<path d="M33.6219 39.5985V39.1205C33.6219 39.072 33.5995 39.0254 33.5597 38.9911C33.5199 38.9568 33.466 38.9375 33.4097 38.9375H31.9025C31.8463 38.9375 31.7923 38.9568 31.7525 38.9911C31.7127 39.0254 31.6904 39.072 31.6904 39.1205V39.5985H27.2847V39.1205C27.2847 39.0721 27.2625 39.0257 27.223 38.9915C27.1835 38.9572 27.1298 38.9378 27.0737 38.9375H25.5665C25.5103 38.9375 25.4563 38.9568 25.4165 38.9911C25.3767 39.0254 25.3544 39.072 25.3544 39.1205V39.5985H19.5934V39.1205C19.5934 39.072 19.5711 39.0254 19.5313 38.9911C19.4915 38.9568 19.4375 38.9375 19.3813 38.9375H17.8741C17.8178 38.9375 17.7639 38.9568 17.7241 38.9911C17.6843 39.0254 17.6619 39.072 17.6619 39.1205V39.5985H11.9578V39.1205C11.9578 39.072 11.9354 39.0254 11.8957 38.9911C11.8559 38.9568 11.8019 38.9375 11.7456 38.9375H10.2384C10.1822 38.9375 10.1282 38.9568 10.0884 38.9911C10.0486 39.0254 10.0263 39.072 10.0263 39.1205V39.5985H5.61253V39.1205C5.61253 39.072 5.59018 39.0254 5.55039 38.9911C5.5106 38.9568 5.45664 38.9375 5.40037 38.9375H3.8955C3.83923 38.9375 3.78527 38.9568 3.74548 38.9911C3.70569 39.0254 3.68333 39.072 3.68333 39.1205V39.5985H0V40.1735H37.2612V39.6015L33.6219 39.5985Z" fill="white"/>
<path d="M5.37976 42.2611C5.44126 42.2611 5.50023 42.24 5.54372 42.2025C5.5872 42.165 5.61163 42.1141 5.61163 42.0611V40.5391H3.68359V42.0611C3.68359 42.1141 3.70802 42.165 3.75151 42.2025C3.79499 42.24 3.85397 42.2611 3.91547 42.2611H5.37976Z" fill="white"/>
<path d="M11.7284 42.2611C11.7899 42.2611 11.8489 42.24 11.8924 42.2025C11.9358 42.165 11.9603 42.1141 11.9603 42.0611V40.5391H10.0322V42.0611C10.0322 42.1141 10.0567 42.165 10.1001 42.2025C10.1436 42.24 10.2026 42.2611 10.2641 42.2611H11.7284Z" fill="white"/>
<path d="M19.3612 42.2611C19.4227 42.2611 19.4817 42.24 19.5252 42.2025C19.5686 42.165 19.5931 42.1141 19.5931 42.0611V40.5391H17.665V42.0611C17.665 42.1141 17.6895 42.165 17.733 42.2025C17.7764 42.24 17.8354 42.2611 17.8969 42.2611H19.3612Z" fill="white"/>
<path d="M27.0577 42.2611C27.1192 42.2611 27.1782 42.24 27.2216 42.2025C27.2651 42.165 27.2896 42.1141 27.2896 42.0611V40.5391H25.3604V42.0611C25.3604 42.1141 25.3848 42.165 25.4283 42.2025C25.4718 42.24 25.5307 42.2611 25.5922 42.2611H27.0577Z" fill="white"/>
<path d="M33.3936 42.2611C33.4551 42.2611 33.5141 42.24 33.5576 42.2025C33.6011 42.165 33.6255 42.1141 33.6255 42.0611V40.5391H31.6963V42.0611C31.6963 42.1141 31.7207 42.165 31.7642 42.2025C31.8077 42.24 31.8667 42.2611 31.9282 42.2611H33.3936Z" fill="white"/>
<path d="M37.0072 42.7422H0.250425C0.184008 42.7422 0.120312 42.7649 0.0733478 42.8055C0.026384 42.846 0 42.9009 0 42.9582L0 43.7822C0 43.8395 0.026384 43.8944 0.0733478 43.9349C0.120312 43.9754 0.184008 43.9982 0.250425 43.9982H37.0026C37.069 43.9982 37.1327 43.9754 37.1797 43.9349C37.2266 43.8944 37.253 43.8395 37.253 43.7822V42.9582C37.2533 42.9015 37.2277 42.847 37.1817 42.8066C37.1356 42.7661 37.073 42.743 37.0072 42.7422Z" fill="white"/>
<path d="M49.2612 4.5V53.5" stroke="#D3D3D3"/>
<path d="M66.5285 23.605C65.8285 23.605 65.1985 23.485 64.6385 23.245C64.0785 22.995 63.6385 22.645 63.3185 22.195C62.9985 21.745 62.8385 21.22 62.8385 20.62H64.6685C64.7085 21.07 64.8835 21.44 65.1935 21.73C65.5135 22.02 65.9585 22.165 66.5285 22.165C67.1185 22.165 67.5785 22.025 67.9085 21.745C68.2385 21.455 68.4035 21.085 68.4035 20.635C68.4035 20.285 68.2985 20 68.0885 19.78C67.8885 19.56 67.6335 19.39 67.3235 19.27C67.0235 19.15 66.6035 19.02 66.0635 18.88C65.3835 18.7 64.8285 18.52 64.3985 18.34C63.9785 18.15 63.6185 17.86 63.3185 17.47C63.0185 17.08 62.8685 16.56 62.8685 15.91C62.8685 15.31 63.0185 14.785 63.3185 14.335C63.6185 13.885 64.0385 13.54 64.5785 13.3C65.1185 13.06 65.7435 12.94 66.4535 12.94C67.4635 12.94 68.2885 13.195 68.9285 13.705C69.5785 14.205 69.9385 14.895 70.0085 15.775H68.1185C68.0885 15.395 67.9085 15.07 67.5785 14.8C67.2485 14.53 66.8135 14.395 66.2735 14.395C65.7835 14.395 65.3835 14.52 65.0735 14.77C64.7635 15.02 64.6085 15.38 64.6085 15.85C64.6085 16.17 64.7035 16.435 64.8935 16.645C65.0935 16.845 65.3435 17.005 65.6435 17.125C65.9435 17.245 66.3535 17.375 66.8735 17.515C67.5635 17.705 68.1235 17.895 68.5535 18.085C68.9935 18.275 69.3635 18.57 69.6635 18.97C69.9735 19.36 70.1285 19.885 70.1285 20.545C70.1285 21.075 69.9835 21.575 69.6935 22.045C69.4135 22.515 68.9985 22.895 68.4485 23.185C67.9085 23.465 67.2685 23.605 66.5285 23.605ZM73.0162 14.14C72.7062 14.14 72.4462 14.035 72.2362 13.825C72.0262 13.615 71.9212 13.355 71.9212 13.045C71.9212 12.735 72.0262 12.475 72.2362 12.265C72.4462 12.055 72.7062 11.95 73.0162 11.95C73.3162 11.95 73.5712 12.055 73.7812 12.265C73.9912 12.475 74.0962 12.735 74.0962 13.045C74.0962 13.355 73.9912 13.615 73.7812 13.825C73.5712 14.035 73.3162 14.14 73.0162 14.14ZM73.8562 15.235V23.5H72.1462V15.235H73.8562ZM79.1013 23.635C78.4513 23.635 77.8663 23.52 77.3463 23.29C76.8363 23.05 76.4313 22.73 76.1313 22.33C75.8313 21.92 75.6713 21.465 75.6513 20.965H77.4213C77.4513 21.315 77.6163 21.61 77.9163 21.85C78.2263 22.08 78.6113 22.195 79.0713 22.195C79.5513 22.195 79.9213 22.105 80.1813 21.925C80.4513 21.735 80.5863 21.495 80.5863 21.205C80.5863 20.895 80.4363 20.665 80.1363 20.515C79.8463 20.365 79.3813 20.2 78.7413 20.02C78.1213 19.85 77.6163 19.685 77.2263 19.525C76.8363 19.365 76.4963 19.12 76.2063 18.79C75.9263 18.46 75.7863 18.025 75.7863 17.485C75.7863 17.045 75.9163 16.645 76.1763 16.285C76.4363 15.915 76.8063 15.625 77.2863 15.415C77.7763 15.205 78.3363 15.1 78.9663 15.1C79.9063 15.1 80.6613 15.34 81.2313 15.82C81.8113 16.29 82.1213 16.935 82.1613 17.755H80.4513C80.4213 17.385 80.2713 17.09 80.0013 16.87C79.7313 16.65 79.3663 16.54 78.9063 16.54C78.4563 16.54 78.1113 16.625 77.8713 16.795C77.6313 16.965 77.5113 17.19 77.5113 17.47C77.5113 17.69 77.5913 17.875 77.7513 18.025C77.9113 18.175 78.1063 18.295 78.3363 18.385C78.5663 18.465 78.9063 18.57 79.3563 18.7C79.9563 18.86 80.4463 19.025 80.8263 19.195C81.2163 19.355 81.5513 19.595 81.8313 19.915C82.1113 20.235 82.2563 20.66 82.2663 21.19C82.2663 21.66 82.1363 22.08 81.8763 22.45C81.6163 22.82 81.2463 23.11 80.7663 23.32C80.2963 23.53 79.7413 23.635 79.1013 23.635ZM86.109 16.63V21.205C86.109 21.515 86.179 21.74 86.319 21.88C86.469 22.01 86.719 22.075 87.069 22.075H88.119V23.5H86.769C85.999 23.5 85.409 23.32 84.999 22.96C84.589 22.6 84.384 22.015 84.384 21.205V16.63H83.409V15.235H84.384V13.18H86.109V15.235H88.119V16.63H86.109ZM97.2701 19.165C97.2701 19.475 97.2501 19.755 97.2101 20.005H90.8951C90.9451 20.665 91.1901 21.195 91.6301 21.595C92.0701 21.995 92.6101 22.195 93.2501 22.195C94.1701 22.195 94.8201 21.81 95.2001 21.04H97.0451C96.7951 21.8 96.3401 22.425 95.6801 22.915C95.0301 23.395 94.2201 23.635 93.2501 23.635C92.4601 23.635 91.7501 23.46 91.1201 23.11C90.5001 22.75 90.0101 22.25 89.6501 21.61C89.3001 20.96 89.1251 20.21 89.1251 19.36C89.1251 18.51 89.2951 17.765 89.6351 17.125C89.9851 16.475 90.4701 15.975 91.0901 15.625C91.7201 15.275 92.4401 15.1 93.2501 15.1C94.0301 15.1 94.7251 15.27 95.3351 15.61C95.9451 15.95 96.4201 16.43 96.7601 17.05C97.1001 17.66 97.2701 18.365 97.2701 19.165ZM95.4851 18.625C95.4751 17.995 95.2501 17.49 94.8101 17.11C94.3701 16.73 93.8251 16.54 93.1751 16.54C92.5851 16.54 92.0801 16.73 91.6601 17.11C91.2401 17.48 90.9901 17.985 90.9101 18.625H95.4851ZM108.958 15.1C109.608 15.1 110.188 15.235 110.698 15.505C111.218 15.775 111.623 16.175 111.913 16.705C112.213 17.235 112.363 17.875 112.363 18.625V23.5H110.668V18.88C110.668 18.14 110.483 17.575 110.113 17.185C109.743 16.785 109.238 16.585 108.598 16.585C107.958 16.585 107.448 16.785 107.068 17.185C106.698 17.575 106.513 18.14 106.513 18.88V23.5H104.818V18.88C104.818 18.14 104.633 17.575 104.263 17.185C103.893 16.785 103.388 16.585 102.748 16.585C102.108 16.585 101.598 16.785 101.218 17.185C100.848 17.575 100.663 18.14 100.663 18.88V23.5H98.9529V15.235H100.663V16.18C100.943 15.84 101.298 15.575 101.728 15.385C102.158 15.195 102.618 15.1 103.108 15.1C103.768 15.1 104.358 15.24 104.878 15.52C105.398 15.8 105.798 16.205 106.078 16.735C106.328 16.235 106.718 15.84 107.248 15.55C107.778 15.25 108.348 15.1 108.958 15.1ZM113.969 19.33C113.969 18.5 114.139 17.765 114.479 17.125C114.829 16.485 115.299 15.99 115.889 15.64C116.489 15.28 117.149 15.1 117.869 15.1C118.519 15.1 119.084 15.23 119.564 15.49C120.054 15.74 120.444 16.055 120.734 16.435V15.235H122.459V23.5H120.734V22.27C120.444 22.66 120.049 22.985 119.549 23.245C119.049 23.505 118.479 23.635 117.839 23.635C117.129 23.635 116.479 23.455 115.889 23.095C115.299 22.725 114.829 22.215 114.479 21.565C114.139 20.905 113.969 20.16 113.969 19.33ZM120.734 19.36C120.734 18.79 120.614 18.295 120.374 17.875C120.144 17.455 119.839 17.135 119.459 16.915C119.079 16.695 118.669 16.585 118.229 16.585C117.789 16.585 117.379 16.695 116.999 16.915C116.619 17.125 116.309 17.44 116.069 17.86C115.839 18.27 115.724 18.76 115.724 19.33C115.724 19.9 115.839 20.4 116.069 20.83C116.309 21.26 116.619 21.59 116.999 21.82C117.389 22.04 117.799 22.15 118.229 22.15C118.669 22.15 119.079 22.04 119.459 21.82C119.839 21.6 120.144 21.28 120.374 20.86C120.614 20.43 120.734 19.93 120.734 19.36ZM128.031 19.33C128.031 18.5 128.201 17.765 128.541 17.125C128.891 16.485 129.361 15.99 129.951 15.64C130.551 15.28 131.216 15.1 131.946 15.1C132.486 15.1 133.016 15.22 133.536 15.46C134.066 15.69 134.486 16 134.796 16.39V12.4H136.521V23.5H134.796V22.255C134.516 22.655 134.126 22.985 133.626 23.245C133.136 23.505 132.571 23.635 131.931 23.635C131.211 23.635 130.551 23.455 129.951 23.095C129.361 22.725 128.891 22.215 128.541 21.565C128.201 20.905 128.031 20.16 128.031 19.33ZM134.796 19.36C134.796 18.79 134.676 18.295 134.436 17.875C134.206 17.455 133.901 17.135 133.521 16.915C133.141 16.695 132.731 16.585 132.291 16.585C131.851 16.585 131.441 16.695 131.061 16.915C130.681 17.125 130.371 17.44 130.131 17.86C129.901 18.27 129.786 18.76 129.786 19.33C129.786 19.9 129.901 20.4 130.131 20.83C130.371 21.26 130.681 21.59 131.061 21.82C131.451 22.04 131.861 22.15 132.291 22.15C132.731 22.15 133.141 22.04 133.521 21.82C133.901 21.6 134.206 21.28 134.436 20.86C134.676 20.43 134.796 19.93 134.796 19.36ZM146.342 19.165C146.342 19.475 146.322 19.755 146.282 20.005H139.967C140.017 20.665 140.262 21.195 140.702 21.595C141.142 21.995 141.682 22.195 142.322 22.195C143.242 22.195 143.892 21.81 144.272 21.04H146.117C145.867 21.8 145.412 22.425 144.752 22.915C144.102 23.395 143.292 23.635 142.322 23.635C141.532 23.635 140.822 23.46 140.192 23.11C139.572 22.75 139.082 22.25 138.722 21.61C138.372 20.96 138.197 20.21 138.197 19.36C138.197 18.51 138.367 17.765 138.707 17.125C139.057 16.475 139.542 15.975 140.162 15.625C140.792 15.275 141.512 15.1 142.322 15.1C143.102 15.1 143.797 15.27 144.407 15.61C145.017 15.95 145.492 16.43 145.832 17.05C146.172 17.66 146.342 18.365 146.342 19.165ZM144.557 18.625C144.547 17.995 144.322 17.49 143.882 17.11C143.442 16.73 142.897 16.54 142.247 16.54C141.657 16.54 141.152 16.73 140.732 17.11C140.312 17.48 140.062 17.985 139.982 18.625H144.557ZM69.4535 42.64H65.5235L64.8935 44.5H62.2085L66.0185 33.97H68.9885L72.7985 44.5H70.0835L69.4535 42.64ZM68.7935 40.66L67.4885 36.805L66.1985 40.66H68.7935ZM82.2231 36.13V44.5H79.6581V43.36C79.3981 43.73 79.0431 44.03 78.5931 44.26C78.1531 44.48 77.6631 44.59 77.1231 44.59C76.4831 44.59 75.9181 44.45 75.4281 44.17C74.9381 43.88 74.5581 43.465 74.2881 42.925C74.0181 42.385 73.8831 41.75 73.8831 41.02V36.13H76.4331V40.675C76.4331 41.235 76.5781 41.67 76.8681 41.98C77.1581 42.29 77.5481 42.445 78.0381 42.445C78.5381 42.445 78.9331 42.29 79.2231 41.98C79.5131 41.67 79.6581 41.235 79.6581 40.675V36.13H82.2231ZM88.7305 42.325V44.5H87.4255C86.4955 44.5 85.7705 44.275 85.2505 43.825C84.7305 43.365 84.4705 42.62 84.4705 41.59V38.26H83.4505V36.13H84.4705V34.09H87.0355V36.13H88.7155V38.26H87.0355V41.62C87.0355 41.87 87.0955 42.05 87.2155 42.16C87.3355 42.27 87.5355 42.325 87.8155 42.325H88.7305ZM98.0492 40.18C98.0492 40.42 98.0342 40.67 98.0042 40.93H92.1992C92.2392 41.45 92.4042 41.85 92.6942 42.13C92.9942 42.4 93.3592 42.535 93.7892 42.535C94.4292 42.535 94.8742 42.265 95.1242 41.725H97.8542C97.7142 42.275 97.4592 42.77 97.0892 43.21C96.7292 43.65 96.2742 43.995 95.7242 44.245C95.1742 44.495 94.5592 44.62 93.8792 44.62C93.0592 44.62 92.3292 44.445 91.6892 44.095C91.0492 43.745 90.5492 43.245 90.1892 42.595C89.8292 41.945 89.6492 41.185 89.6492 40.315C89.6492 39.445 89.8242 38.685 90.1742 38.035C90.5342 37.385 91.0342 36.885 91.6742 36.535C92.3142 36.185 93.0492 36.01 93.8792 36.01C94.6892 36.01 95.4092 36.18 96.0392 36.52C96.6692 36.86 97.1592 37.345 97.5092 37.975C97.8692 38.605 98.0492 39.34 98.0492 40.18ZM95.4242 39.505C95.4242 39.065 95.2742 38.715 94.9742 38.455C94.6742 38.195 94.2992 38.065 93.8492 38.065C93.4192 38.065 93.0542 38.19 92.7542 38.44C92.4642 38.69 92.2842 39.045 92.2142 39.505H95.4242ZM104.502 36.04C105.482 36.04 106.262 36.36 106.842 37C107.432 37.63 107.727 38.5 107.727 39.61V44.5H105.177V39.955C105.177 39.395 105.032 38.96 104.742 38.65C104.452 38.34 104.062 38.185 103.572 38.185C103.082 38.185 102.692 38.34 102.402 38.65C102.112 38.96 101.967 39.395 101.967 39.955V44.5H99.4024V36.13H101.967V37.24C102.227 36.87 102.577 36.58 103.017 36.37C103.457 36.15 103.952 36.04 104.502 36.04ZM114.175 42.325V44.5H112.87C111.94 44.5 111.215 44.275 110.695 43.825C110.175 43.365 109.915 42.62 109.915 41.59V38.26H108.895V36.13H109.915V34.09H112.48V36.13H114.16V38.26H112.48V41.62C112.48 41.87 112.54 42.05 112.66 42.16C112.78 42.27 112.98 42.325 113.26 42.325H114.175ZM116.894 35.26C116.444 35.26 116.074 35.13 115.784 34.87C115.504 34.6 115.364 34.27 115.364 33.88C115.364 33.48 115.504 33.15 115.784 32.89C116.074 32.62 116.444 32.485 116.894 32.485C117.334 32.485 117.694 32.62 117.974 32.89C118.264 33.15 118.409 33.48 118.409 33.88C118.409 34.27 118.264 34.6 117.974 34.87C117.694 35.13 117.334 35.26 116.894 35.26ZM118.169 36.13V44.5H115.604V36.13H118.169ZM119.517 40.315C119.517 39.445 119.692 38.685 120.042 38.035C120.402 37.385 120.897 36.885 121.527 36.535C122.167 36.185 122.897 36.01 123.717 36.01C124.767 36.01 125.642 36.285 126.342 36.835C127.052 37.385 127.517 38.16 127.737 39.16H125.007C124.777 38.52 124.332 38.2 123.672 38.2C123.202 38.2 122.827 38.385 122.547 38.755C122.267 39.115 122.127 39.635 122.127 40.315C122.127 40.995 122.267 41.52 122.547 41.89C122.827 42.25 123.202 42.43 123.672 42.43C124.332 42.43 124.777 42.11 125.007 41.47H127.737C127.517 42.45 127.052 43.22 126.342 43.78C125.632 44.34 124.757 44.62 123.717 44.62C122.897 44.62 122.167 44.445 121.527 44.095C120.897 43.745 120.402 43.245 120.042 42.595C119.692 41.945 119.517 41.185 119.517 40.315ZM128.599 40.3C128.599 39.44 128.759 38.685 129.079 38.035C129.409 37.385 129.854 36.885 130.414 36.535C130.974 36.185 131.599 36.01 132.289 36.01C132.879 36.01 133.394 36.13 133.834 36.37C134.284 36.61 134.629 36.925 134.869 37.315V36.13H137.434V44.5H134.869V43.315C134.619 43.705 134.269 44.02 133.819 44.26C133.379 44.5 132.864 44.62 132.274 44.62C131.594 44.62 130.974 44.445 130.414 44.095C129.854 43.735 129.409 43.23 129.079 42.58C128.759 41.92 128.599 41.16 128.599 40.3ZM134.869 40.315C134.869 39.675 134.689 39.17 134.329 38.8C133.979 38.43 133.549 38.245 133.039 38.245C132.529 38.245 132.094 38.43 131.734 38.8C131.384 39.16 131.209 39.66 131.209 40.3C131.209 40.94 131.384 41.45 131.734 41.83C132.094 42.2 132.529 42.385 133.039 42.385C133.549 42.385 133.979 42.2 134.329 41.83C134.689 41.46 134.869 40.955 134.869 40.315ZM138.78 40.315C138.78 39.445 138.955 38.685 139.305 38.035C139.665 37.385 140.16 36.885 140.79 36.535C141.43 36.185 142.16 36.01 142.98 36.01C144.03 36.01 144.905 36.285 145.605 36.835C146.315 37.385 146.78 38.16 147 39.16H144.27C144.04 38.52 143.595 38.2 142.935 38.2C142.465 38.2 142.09 38.385 141.81 38.755C141.53 39.115 141.39 39.635 141.39 40.315C141.39 40.995 141.53 41.52 141.81 41.89C142.09 42.25 142.465 42.43 142.935 42.43C143.595 42.43 144.04 42.11 144.27 41.47H147C146.78 42.45 146.315 43.22 145.605 43.78C144.895 44.34 144.02 44.62 142.98 44.62C142.16 44.62 141.43 44.445 140.79 44.095C140.16 43.745 139.665 43.245 139.305 42.595C138.955 41.945 138.78 41.185 138.78 40.315ZM149.662 35.26C149.212 35.26 148.842 35.13 148.552 34.87C148.272 34.6 148.132 34.27 148.132 33.88C148.132 33.48 148.272 33.15 148.552 32.89C148.842 32.62 149.212 32.485 149.662 32.485C150.102 32.485 150.462 32.62 150.742 32.89C151.032 33.15 151.177 33.48 151.177 33.88C151.177 34.27 151.032 34.6 150.742 34.87C150.462 35.13 150.102 35.26 149.662 35.26ZM150.937 36.13V44.5H148.372V36.13H150.937ZM156.606 44.62C155.786 44.62 155.046 44.445 154.386 44.095C153.736 43.745 153.221 43.245 152.841 42.595C152.471 41.945 152.286 41.185 152.286 40.315C152.286 39.455 152.476 38.7 152.856 38.05C153.236 37.39 153.756 36.885 154.416 36.535C155.076 36.185 155.816 36.01 156.636 36.01C157.456 36.01 158.196 36.185 158.856 36.535C159.516 36.885 160.036 37.39 160.416 38.05C160.796 38.7 160.986 39.455 160.986 40.315C160.986 41.175 160.791 41.935 160.401 42.595C160.021 43.245 159.496 43.745 158.826 44.095C158.166 44.445 157.426 44.62 156.606 44.62ZM156.606 42.4C157.096 42.4 157.511 42.22 157.851 41.86C158.201 41.5 158.376 40.985 158.376 40.315C158.376 39.645 158.206 39.13 157.866 38.77C157.536 38.41 157.126 38.23 156.636 38.23C156.136 38.23 155.721 38.41 155.391 38.77C155.061 39.12 154.896 39.635 154.896 40.315C154.896 40.985 155.056 41.5 155.376 41.86C155.706 42.22 156.116 42.4 156.606 42.4ZM158.586 33.985L154.971 35.5V33.73L158.586 31.99V33.985ZM167.447 36.04C168.427 36.04 169.207 36.36 169.787 37C170.377 37.63 170.672 38.5 170.672 39.61V44.5H168.122V39.955C168.122 39.395 167.977 38.96 167.687 38.65C167.397 38.34 167.007 38.185 166.517 38.185C166.027 38.185 165.637 38.34 165.347 38.65C165.057 38.96 164.912 39.395 164.912 39.955V44.5H162.347V36.13H164.912V37.24C165.172 36.87 165.522 36.58 165.962 36.37C166.402 36.15 166.897 36.04 167.447 36.04ZM182.623 37.3C182.433 36.95 182.158 36.685 181.798 36.505C181.448 36.315 181.033 36.22 180.553 36.22C179.723 36.22 179.058 36.495 178.558 37.045C178.058 37.585 177.808 38.31 177.808 39.22C177.808 40.19 178.068 40.95 178.588 41.5C179.118 42.04 179.843 42.31 180.763 42.31C181.393 42.31 181.923 42.15 182.353 41.83C182.793 41.51 183.113 41.05 183.313 40.45H180.058V38.56H185.638V40.945C185.448 41.585 185.123 42.18 184.663 42.73C184.213 43.28 183.638 43.725 182.938 44.065C182.238 44.405 181.448 44.575 180.568 44.575C179.528 44.575 178.598 44.35 177.778 43.9C176.968 43.44 176.333 42.805 175.873 41.995C175.423 41.185 175.198 40.26 175.198 39.22C175.198 38.18 175.423 37.255 175.873 36.445C176.333 35.625 176.968 34.99 177.778 34.54C178.588 34.08 179.513 33.85 180.553 33.85C181.813 33.85 182.873 34.155 183.733 34.765C184.603 35.375 185.178 36.22 185.458 37.3H182.623ZM195.324 36.13V44.5H192.759V43.36C192.499 43.73 192.144 44.03 191.694 44.26C191.254 44.48 190.764 44.59 190.224 44.59C189.584 44.59 189.019 44.45 188.529 44.17C188.039 43.88 187.659 43.465 187.389 42.925C187.119 42.385 186.984 41.75 186.984 41.02V36.13H189.534V40.675C189.534 41.235 189.679 41.67 189.969 41.98C190.259 42.29 190.649 42.445 191.139 42.445C191.639 42.445 192.034 42.29 192.324 41.98C192.614 41.67 192.759 41.235 192.759 40.675V36.13H195.324ZM199.731 37.315C199.971 36.925 200.316 36.61 200.766 36.37C201.216 36.13 201.731 36.01 202.311 36.01C203.001 36.01 203.626 36.185 204.186 36.535C204.746 36.885 205.186 37.385 205.506 38.035C205.836 38.685 206.001 39.44 206.001 40.3C206.001 41.16 205.836 41.92 205.506 42.58C205.186 43.23 204.746 43.735 204.186 44.095C203.626 44.445 203.001 44.62 202.311 44.62C201.721 44.62 201.206 44.505 200.766 44.275C200.326 44.035 199.981 43.72 199.731 43.33V44.5H197.166V33.4H199.731V37.315ZM203.391 40.3C203.391 39.66 203.211 39.16 202.851 38.8C202.501 38.43 202.066 38.245 201.546 38.245C201.036 38.245 200.601 38.43 200.241 38.8C199.891 39.17 199.716 39.675 199.716 40.315C199.716 40.955 199.891 41.46 200.241 41.83C200.601 42.2 201.036 42.385 201.546 42.385C202.056 42.385 202.491 42.2 202.851 41.83C203.211 41.45 203.391 40.94 203.391 40.3ZM215.237 40.18C215.237 40.42 215.222 40.67 215.192 40.93H209.387C209.427 41.45 209.592 41.85 209.882 42.13C210.182 42.4 210.547 42.535 210.977 42.535C211.617 42.535 212.062 42.265 212.312 41.725H215.042C214.902 42.275 214.647 42.77 214.277 43.21C213.917 43.65 213.462 43.995 212.912 44.245C212.362 44.495 211.747 44.62 211.067 44.62C210.247 44.62 209.517 44.445 208.877 44.095C208.237 43.745 207.737 43.245 207.377 42.595C207.017 41.945 206.837 41.185 206.837 40.315C206.837 39.445 207.012 38.685 207.362 38.035C207.722 37.385 208.222 36.885 208.862 36.535C209.502 36.185 210.237 36.01 211.067 36.01C211.877 36.01 212.597 36.18 213.227 36.52C213.857 36.86 214.347 37.345 214.697 37.975C215.057 38.605 215.237 39.34 215.237 40.18ZM212.612 39.505C212.612 39.065 212.462 38.715 212.162 38.455C211.862 38.195 211.487 38.065 211.037 38.065C210.607 38.065 210.242 38.19 209.942 38.44C209.652 38.69 209.472 39.045 209.402 39.505H212.612ZM219.155 37.525C219.455 37.065 219.83 36.705 220.28 36.445C220.73 36.175 221.23 36.04 221.78 36.04V38.755H221.075C220.435 38.755 219.955 38.895 219.635 39.175C219.315 39.445 219.155 39.925 219.155 40.615V44.5H216.59V36.13H219.155V37.525ZM228.106 36.04C229.086 36.04 229.866 36.36 230.446 37C231.036 37.63 231.331 38.5 231.331 39.61V44.5H228.781V39.955C228.781 39.395 228.636 38.96 228.346 38.65C228.056 38.34 227.666 38.185 227.176 38.185C226.686 38.185 226.296 38.34 226.006 38.65C225.716 38.96 225.571 39.395 225.571 39.955V44.5H223.006V36.13H225.571V37.24C225.831 36.87 226.181 36.58 226.621 36.37C227.061 36.15 227.556 36.04 228.106 36.04ZM232.603 40.3C232.603 39.44 232.763 38.685 233.083 38.035C233.413 37.385 233.858 36.885 234.418 36.535C234.978 36.185 235.603 36.01 236.293 36.01C236.883 36.01 237.398 36.13 237.838 36.37C238.288 36.61 238.633 36.925 238.873 37.315V36.13H241.438V44.5H238.873V43.315C238.623 43.705 238.273 44.02 237.823 44.26C237.383 44.5 236.868 44.62 236.278 44.62C235.598 44.62 234.978 44.445 234.418 44.095C233.858 43.735 233.413 43.23 233.083 42.58C232.763 41.92 232.603 41.16 232.603 40.3ZM238.873 40.315C238.873 39.675 238.693 39.17 238.333 38.8C237.983 38.43 237.553 38.245 237.043 38.245C236.533 38.245 236.098 38.43 235.738 38.8C235.388 39.16 235.213 39.66 235.213 40.3C235.213 40.94 235.388 41.45 235.738 41.83C236.098 42.2 236.533 42.385 237.043 42.385C237.553 42.385 237.983 42.2 238.333 41.83C238.693 41.46 238.873 40.955 238.873 40.315ZM253.974 36.04C255.014 36.04 255.839 36.355 256.449 36.985C257.069 37.615 257.379 38.49 257.379 39.61V44.5H254.829V39.955C254.829 39.415 254.684 39 254.394 38.71C254.114 38.41 253.724 38.26 253.224 38.26C252.724 38.26 252.329 38.41 252.039 38.71C251.759 39 251.619 39.415 251.619 39.955V44.5H249.069V39.955C249.069 39.415 248.924 39 248.634 38.71C248.354 38.41 247.964 38.26 247.464 38.26C246.964 38.26 246.569 38.41 246.279 38.71C245.999 39 245.859 39.415 245.859 39.955V44.5H243.294V36.13H245.859V37.18C246.119 36.83 246.459 36.555 246.879 36.355C247.299 36.145 247.774 36.04 248.304 36.04C248.934 36.04 249.494 36.175 249.984 36.445C250.484 36.715 250.874 37.1 251.154 37.6C251.444 37.14 251.839 36.765 252.339 36.475C252.839 36.185 253.384 36.04 253.974 36.04ZM267.063 40.18C267.063 40.42 267.048 40.67 267.018 40.93H261.213C261.253 41.45 261.418 41.85 261.708 42.13C262.008 42.4 262.373 42.535 262.803 42.535C263.443 42.535 263.888 42.265 264.138 41.725H266.868C266.728 42.275 266.473 42.77 266.103 43.21C265.743 43.65 265.288 43.995 264.738 44.245C264.188 44.495 263.573 44.62 262.893 44.62C262.073 44.62 261.343 44.445 260.703 44.095C260.063 43.745 259.563 43.245 259.203 42.595C258.843 41.945 258.663 41.185 258.663 40.315C258.663 39.445 258.838 38.685 259.188 38.035C259.548 37.385 260.048 36.885 260.688 36.535C261.328 36.185 262.063 36.01 262.893 36.01C263.703 36.01 264.423 36.18 265.053 36.52C265.683 36.86 266.173 37.345 266.523 37.975C266.883 38.605 267.063 39.34 267.063 40.18ZM264.438 39.505C264.438 39.065 264.288 38.715 263.988 38.455C263.688 38.195 263.313 38.065 262.863 38.065C262.433 38.065 262.068 38.19 261.768 38.44C261.478 38.69 261.298 39.045 261.228 39.505H264.438ZM273.516 36.04C274.496 36.04 275.276 36.36 275.856 37C276.446 37.63 276.741 38.5 276.741 39.61V44.5H274.191V39.955C274.191 39.395 274.046 38.96 273.756 38.65C273.466 38.34 273.076 38.185 272.586 38.185C272.096 38.185 271.706 38.34 271.416 38.65C271.126 38.96 270.981 39.395 270.981 39.955V44.5H268.416V36.13H270.981V37.24C271.241 36.87 271.591 36.58 272.031 36.37C272.471 36.15 272.966 36.04 273.516 36.04ZM283.189 42.325V44.5H281.884C280.954 44.5 280.229 44.275 279.709 43.825C279.189 43.365 278.929 42.62 278.929 41.59V38.26H277.909V36.13H278.929V34.09H281.494V36.13H283.174V38.26H281.494V41.62C281.494 41.87 281.554 42.05 281.674 42.16C281.794 42.27 281.994 42.325 282.274 42.325H283.189ZM284.107 40.3C284.107 39.44 284.267 38.685 284.587 38.035C284.917 37.385 285.362 36.885 285.922 36.535C286.482 36.185 287.107 36.01 287.797 36.01C288.387 36.01 288.902 36.13 289.342 36.37C289.792 36.61 290.137 36.925 290.377 37.315V36.13H292.942V44.5H290.377V43.315C290.127 43.705 289.777 44.02 289.327 44.26C288.887 44.5 288.372 44.62 287.782 44.62C287.102 44.62 286.482 44.445 285.922 44.095C285.362 43.735 284.917 43.23 284.587 42.58C284.267 41.92 284.107 41.16 284.107 40.3ZM290.377 40.315C290.377 39.675 290.197 39.17 289.837 38.8C289.487 38.43 289.057 38.245 288.547 38.245C288.037 38.245 287.602 38.43 287.242 38.8C286.892 39.16 286.717 39.66 286.717 40.3C286.717 40.94 286.892 41.45 287.242 41.83C287.602 42.2 288.037 42.385 288.547 42.385C289.057 42.385 289.487 42.2 289.837 41.83C290.197 41.46 290.377 40.955 290.377 40.315ZM297.363 33.4V44.5H294.798V33.4H297.363Z" fill="white"/>
</svg>
